# xmcd
#
# Track frame offsets:
#	150
#	10011
#	22943
#	34098
#	49739
#	57573
#	67233
#	78132
#	91710
#	102104
#	110311
#	120035
#	130893
#	140181
#	150143
#	168595
#	180792
#	190064
#	199408
#	207372
#
# Disc length: 2915 seconds
#
# Revision: 1
# Processed by: cddbd v1.5.1PL2 Copyright (c) Steve Scherf et al.
# Submitted via: audiograbber 1.83.01
#
DISCID=fb0b6114
DTITLE=Smoky Mountain Choir/Roy Clark - Hymns From The Old Country Church 3
DYEAR=1900
DGENRE=Country
TTITLE0=There's Power in the Blood
TTITLE1=I Love To Tell The Story
TTITLE2=Stand Up, Stand Up For Jesus
TTITLE3=Victory in Jesus
TTITLE4=Rock of Ages
TTITLE5=He Leadeth Me
TTITLE6=When We All Get To Heaven
TTITLE7=Higher Ground
TTITLE8=I Feel Like Travelin' On
TTITLE9=Sing Hallelujah!
TTITLE10=All Hail The Power of Jesus' Name
TTITLE11=We're Marching To Zion
TTITLE12=Bringing In The Sheaves
TTITLE13=Revive Us Again
TTITLE14=Sweet Hour of Prayer
TTITLE15=Fairest Lord Jesus
TTITLE16=Shoutin' In God's Country
TTITLE17=Nothing But The Blood
TTITLE18=He is Born
TTITLE19=Go Tell It On The Mountains
EXTD=
EXTT0=
EXTT1=
EXTT2=
EXTT3=
EXTT4=
EXTT5=
EXTT6=
EXTT7=
EXTT8=
EXTT9=
EXTT10=
EXTT11=
EXTT12=
EXTT13=
EXTT14=
EXTT15=
EXTT16=
EXTT17=
EXTT18=
EXTT19=
PLAYORDER=
